<?xml version="1.0" encoding="UTF-8"?><svg xmlns="http://www.w3.org/2000/svg" xmlns:xlink="http://www.w3.org/1999/xlink" height="64.5" preserveAspectRatio="xMidYMid meet" version="1.0" viewBox="-0.2 -0.5 64.0 64.5" width="64.0" zoomAndPan="magnify">
 <g id="change1_1"><path d="m17.582 17.424l-4.138-4.14 0.016 29.903 0.05 1.396c0.02 0.66 0.145 1.4 0.345 2.17l32.775 11.56 8.2-3.63 0.007-0.012-37.257-37.247z" fill="#00c4b3"/></g>
 <g id="change2_1"><path d="m13.856 46.753h0.003c-0.003-0.012-0.008-0.026-0.014-0.04 0.007 0.015 0.007 0.03 0.01 0.04zm40.966 7.93l-8.2 3.63-32.77-11.56c0.625 2.404 2.012 5.106 3.502 6.58l10.69 10.637 23.788 0.03 2.98-9.317z" fill="#22d3c5"/></g>
 <g fill="#0075c9" id="change3_1">
  <path d="m13.556 13.285l-12.743 19.245c-1.058 1.13-0.53 3.462 1.173 5.18l7.356 7.416 4.624 1.63c-0.2-0.768-0.326-1.5-0.345-2.17l-0.05-1.396-0.015-29.903z" fill="inherit"/>
  <path d="m46.9 13.67c-0.77-0.195-1.508-0.318-2.173-0.337l-1.478-0.054-29.805 0.007 41.392 41.386 3.636-8.2-11.57-32.8z" fill="inherit"/>
 </g>
 <g id="change4_1"><path d="m46.862 13.663c0.013 0.005 0.027 0.008 0.038 0.01v-0.004c-0.013-0.003-0.025-0.003-0.038-0.008zm6.615 3.518c-1.505-1.515-4.17-2.9-6.577-3.508l11.57 32.797-3.64 8.2 8.882-2.838 0.02-24.352-10.256-10.3z" fill="#00a8e1"/></g>
 <g id="change1_2"><path d="m45.278 9.075l-7.4-7.36c-1.726-1.697-4.058-2.227-5.178-1.171l-19.244 12.74 29.805-0.007 1.478 0.054c0.665 0.02 1.404 0.142 2.173 0.337l-1.632-4.595zm-31.833 4.2" fill="#00c4b3"/></g>
</svg>